<svg xmlns="http://www.w3.org/2000/svg" viewBox="0 0 81 40"><title>igotb</title><g id="Layer_2" data-name="Layer 2"><path d="M5,24c0-17.33.1-11.09,0-20.4,0-1.87.14-2.4.53-2.4s1.2,1.06,1.68,1.54c.72.82,7.87,8.54,15.27,16.47,4.75,5.09,10,10.94,11.52,12.53L33.47,7.33c0-3.12-.38-4.18-1.87-4.56a10,10,0,0,0-2.06-.24c-.53,0-.67-.14-.67-.34s.38-.34,1-.34c2.16,0,4.46.14,5,.14s2.11-.14,4.08-.14c.53,0,.86,0,.86.34s-.19.29-.53.34-.67.1-1.25.19c-1.34.29-1.68,1-1.68,4.32l-.1,28c0,3.17-.1,3.41-.43,3.41s-1-.53-3.5-3.07c-.53-.48-7.44-7.54-12.53-13-5.57-6-11-12-12.53-13.78l.62,23c.1,3.94.58,5.18,1.87,5.57a10.52,10.52,0,0,0,2.4.29c.24,0,.38.1.38.29s-.29.38-.86.38C8.9,38.14,7,38,6.54,38s-2.45.14-4.61.14c-.48,0-.77,0-.77-.38s.14-.29.38-.29a6.88,6.88,0,0,0,2-.29C4.72,36.85,5,35.46,5,31.09Z"/><path d="M46.1,22.64C46.1,16.25,51,6.7,62.9,6.7c9.5,0,16.75,5.67,16.75,15.31,0,9.17-6.77,16.66-17,16.66C50.9,38.67,46.1,29.94,46.1,22.64Zm29,.58c0-9.65-6-15-12.53-15s-12,4.13-12,13.2C50.56,30.8,55.79,37,63.86,37,67.07,37,75.14,35.41,75.14,23.21Z"/></g></svg>