<svg id="Layer_1" data-name="Layer 1" xmlns="http://www.w3.org/2000/svg" viewBox="0 0 249 39"><title>Untitled-1</title><path d="M4.54,14.77c0-7.49,0-8.83-.1-10.37S3.87,2,2.82,1.72a6.29,6.29,0,0,0-1.49-.19c-.19,0-.38-.1-.38-.29s.24-.38.77-.38C3.3.85,6.32,1,6.56,1S9.83.85,11.27.85c.53,0,.77.1.77.38s-.19.29-.38.29a7.12,7.12,0,0,0-1.2.14c-1.3.24-1.68,1.06-1.78,2.74s-.1,2.88-.1,10.37v8.45c0,4.61,0,8.4.24,10.42.14,1.39.43,2.45,1.87,2.64.67.1,1.68.19,2,.19s.58.14.58.29-.19.38-.72.38c-2.64,0-5.71-.14-6-.14s-3.26.14-4.7.14c-.53,0-.77-.1-.77-.38s.1-.29.53-.29a6.66,6.66,0,0,0,1.25-.14c1-.19,1.25-1.3,1.44-2.69.24-2,.24-5.81.24-10.42Z"/><path d="M20.72,36.62c-.62-.29-.62-.48-.62-1.63,0-2.21.14-3.84.19-4.51,0-.43.14-.67.38-.67s.34.14.34.48a6,6,0,0,0,.14,1.44c.62,3.12,3.46,4.32,6.24,4.32,4,0,5.9-2.74,5.9-5.14,0-2.74-1.25-4.42-4.75-7.25l-1.92-1.49c-4.61-3.7-5.57-6.24-5.57-9.07,0-4.42,3.5-7.39,8.88-7.39a16.76,16.76,0,0,1,3.89.38,7.94,7.94,0,0,0,1.63.24c.34,0,.43.1.43.29s-.19,1.87-.19,4.66c0,.72-.1,1-.34,1s-.29-.19-.34-.53a6.46,6.46,0,0,0-.58-2.26c-.24-.43-1.34-2.26-5.38-2.26-2.88,0-5,1.73-5,4.61,0,2.26,1.15,3.65,5.14,6.67l1.1.86c5,3.84,6.29,6.38,6.29,9.79A8.42,8.42,0,0,1,32.91,36a12,12,0,0,1-6.48,1.68A13.6,13.6,0,0,1,20.72,36.62Z"/><path d="M64.4,14.77c0-7.49,0-8.83-.1-10.37S63.73,2,62.67,1.72a6.3,6.3,0,0,0-1.49-.19c-.19,0-.38-.1-.38-.29s.24-.38.77-.38c1.58,0,4.61.14,4.85.14s3.26-.14,4.7-.14c.53,0,.77.1.77.38s-.19.29-.38.29a7.11,7.11,0,0,0-1.2.14c-1.3.24-1.68,1.06-1.78,2.74s-.1,2.88-.1,10.37v8.45c0,4.61,0,8.4.24,10.42.14,1.39.43,2.45,1.87,2.64.67.1,1.68.19,2,.19s.58.14.58.29-.19.38-.72.38c-2.64,0-5.71-.14-6-.14s-3.26.14-4.71.14c-.53,0-.77-.1-.77-.38s.1-.29.53-.29a6.65,6.65,0,0,0,1.25-.14c1-.19,1.25-1.3,1.44-2.69.24-2,.24-5.81.24-10.42Z"/><path d="M92.82,25.29c0,3.7,0,7.1.24,8.88.14,1.15.24,1.82,1.44,2.11a9.54,9.54,0,0,0,1.87.19c.38,0,.58.14.58.29s-.14.38-.62.38c-2.45,0-5.28-.14-5.47-.14s-3,.14-4.27.14c-.53,0-.72-.1-.72-.34s.14-.34.53-.34a7.8,7.8,0,0,0,1.06,0c.91-.14,1.06-.72,1.25-2.35s.19-5.18.19-8.78V8.15c-1.58,0-4.13,0-6,0-3.07,0-3.74.53-4.42,1.54a7.48,7.48,0,0,0-.72,1.49c-.14.34-.24.38-.43.38s-.24-.19-.24-.43.67-3.46,1-4.75c.14-.58.29-.77.43-.77.34,0,1.25.43,2.11.53,1.68.19,3,.24,3.07.24H99.34a20.62,20.62,0,0,0,3.46-.24,5.76,5.76,0,0,1,.91-.19c.19,0,.29.24.29.43,0,1.34-.1,4.51-.1,4.9s-.19.58-.34.58-.34-.19-.34-.58a5.57,5.57,0,0,0,0-.67c-.19-1.92-.82-2.4-5.67-2.45-1.82,0-3.31,0-4.7,0Z"/><path d="M123,37a.69.69,0,0,1-.67-.67c0-.38.48-.82.86-1.15C132.8,26.63,140,20,140,10.79c0-6.86-4.42-8.88-7.63-8.88a6.75,6.75,0,0,0-5.14,1.82,6.35,6.35,0,0,0-1.73,4.66c0,.43-.14.72-.38.72s-.34-.19-.38-.62-.29-4.42-.29-5.9c0-.29,0-.43.48-.72A20.08,20.08,0,0,1,133.33.18c7.25,0,10.85,4.61,10.85,9.7,0,9.94-10.75,18.82-16.71,23.91-.24.19-.14.34.1.34h3.5c.82,0,6.48,0,8.21-.24,3.5-.34,5-1.78,5.67-4.61.1-.53.24-.72.53-.72s.29.29.29.58a46.13,46.13,0,0,1-1.44,6.43c-.38,1.3-1.1,1.49-3.12,1.49C131.26,37.1,124.93,37,123,37Z"/><path d="M162.94,37.82c-7.63,0-11.52-9.12-11.52-17.71,0-11.62,4.46-19.92,12.29-19.92,9,0,11.57,11.43,11.57,17.71C175.28,28.94,170.91,37.82,162.94,37.82Zm-.19-35.91c-4.56,0-7.25,6.48-7.25,16.23,0,8.4,2.4,17.91,8.4,17.91,4.42,0,7.3-6.62,7.3-16.08C171.2,10.84,168.27,1.91,162.75,1.91Z"/><path d="M186.61,6.76c0-1-.1-1.54-.72-1.54-1.2,0-4.42,1.49-4.66,1.49s-.43,0-.43-.24a.74.74,0,0,1,.34-.48c3.07-2.06,4.9-3.17,8-5.23a2.58,2.58,0,0,1,1.15-.58c.38,0,.38.53.38,1,0,.14-.29,10.42-.29,21.36,0,4.8.1,9.07.24,11.18.1,1.49.43,2.3,2,2.45.58,0,1,.1,1.3.14s.77.19.77.48-.24.34-.82.34c-3.6,0-5.23-.14-5.47-.14s-2.83.14-5.9.14c-.53,0-.82-.1-.82-.34s.19-.38.67-.38a16.63,16.63,0,0,0,1.82-.14c1.78-.14,2.16-1,2.3-2.83.14-2.11.14-6.1.14-10.9Z"/><path d="M221.94,13.24c0,14.4-11.28,21.79-17.19,24.72-.19.1-1.15.43-1.15-.1,0-.29.34-.53.63-.67,5.66-3.12,13.49-11.28,13.49-22.56C217.71,6.23,214,2,209.79,2s-6.58,3.55-6.58,7.34c0,8,5.38,9.55,7.44,9.55a6.93,6.93,0,0,0,3.6-.86,1.57,1.57,0,0,1,.72-.29c.38,0,.14.53,0,.72a8.33,8.33,0,0,1-5.76,2.21,9.22,9.22,0,0,1-9.7-9.27c0-6.62,4.85-11.19,11.47-11.19S221.94,5.94,221.94,13.24Z"/><path d="M247.9,7.67c0,5.62-3.65,8.06-8.26,13.78-1.78,2.26-2,3-2,3.84a4.65,4.65,0,0,0,.77,2.5,1.79,1.79,0,0,1,.38.82c0,.19-.1.38-.29.38-.43,0-1.49-1-2.06-1.68-1-1.2-1.39-2-1.39-2.83a4.1,4.1,0,0,1,1.06-2.4c1.1-1.44,2.26-2.64,3.31-4,3.36-4.27,4.22-6.91,4.22-10.08,0-2.35-1.25-6.19-5.62-6.19a5.92,5.92,0,0,0-4.71,1.87,7.57,7.57,0,0,0-1.68,4.46c0,.48-.14.82-.38.82s-.34-.14-.38-.48a55.33,55.33,0,0,1-.19-5.62c0-.29,0-.48.53-.77a16.09,16.09,0,0,1,8-1.92C245.55.18,247.9,4.21,247.9,7.67Zm-12.29,27.6a2.52,2.52,0,0,1,2.54-2.54,2.38,2.38,0,0,1,2.45,2.5,2.5,2.5,0,1,1-5,0Z"/></svg>