<svg xmlns="http://www.w3.org/2000/svg" viewBox="0 0 80 39"><title>igotb</title><g id="Layer_3" data-name="Layer 3"><path d="M14.87,24.71a10.19,10.19,0,0,0-1.1-5C13.43,18.9,7,8.34,5.32,5.85A13.46,13.46,0,0,0,2.06,2.29,4.59,4.59,0,0,0,0,1.53c-.24,0-.48-.1-.48-.34S-.3.85.14.85C1,.85,4.65,1,4.89,1S7,.85,8.92.85c.53,0,.62.14.62.34s-.29.24-.72.43a1,1,0,0,0-.62.86,4.1,4.1,0,0,0,.62,1.87c.77,1.39,8,13.78,8.83,15.17.91-2,7-12.53,8-14.11A4.69,4.69,0,0,0,26.44,3c0-.67-.19-1.2-.77-1.34S25,1.38,25,1.14s.29-.29.77-.29C27,.85,28.51,1,28.89,1S32.63.85,33.55.85c.34,0,.62.1.62.29s-.24.38-.62.38a4.56,4.56,0,0,0-2.21.67,9.13,9.13,0,0,0-2.54,2.45,153.29,153.29,0,0,0-9.17,15.26,11.51,11.51,0,0,0-.72,4.8v4.13c0,.77,0,2.78.14,4.8.1,1.39.53,2.45,2,2.64a21,21,0,0,0,2.16.19c.29,0,.38.14.38.29s-.24.38-.77.38c-2.64,0-5.67-.14-5.91-.14s-3.26.14-4.7.14c-.53,0-.77-.1-.77-.38s.1-.29.38-.29a7.45,7.45,0,0,0,1.44-.19c1-.19,1.39-1.25,1.49-2.64.14-2,.14-4,.14-4.8Z"/><path d="M39.5,18.09c0-6.29,0-7.44-.1-8.74S39,7.33,37.58,7a8,8,0,0,0-1.15-.1c-.34,0-.62-.14-.62-.29s.24-.38.72-.38c1,0,2.26.1,4.94.14.24,0,8.79,0,9.75,0a6.76,6.76,0,0,0,1.87-.24A1.45,1.45,0,0,1,53.61,6c.1,0,.19.1.19.34s-.29,1-.38,2.16c0,.82-.1,1.58-.14,2.5,0,.43-.1.72-.34.72s-.34-.19-.34-.53a4.57,4.57,0,0,0-.34-1.54c-.29-1-.72-1.3-3.12-1.44-.62,0-5.38-.1-5.47-.1s-.24.1-.24.38v10.9c0,.29,0,.48.29.48.58,0,5.47,0,6.48-.14S52,19.53,52.41,19c.19-.29.34-.38.53-.38s.19,0,.19.29-.19,1.15-.34,2.54-.14,2.3-.19,2.93c0,.38-.14.53-.34.53s-.29-.29-.29-.62a5.4,5.4,0,0,0-.14-1.15c-.19-.62-.48-1.3-2.3-1.44-1.1-.1-5-.19-5.76-.19-.29,0-.34.14-.34.34v3.5c0,1.49,0,5.71,0,6.53.1,1.78.34,2.69,1.34,3.12a9.09,9.09,0,0,0,3.5.43,14.3,14.3,0,0,0,3.65-.29c1.44-.43,1.78-1.39,2.16-3.17.1-.48.24-.67.43-.67s.29.43.29.72-.38,3.36-.53,4.18-.53,1.06-2.11,1.06c-3.17,0-4.51-.1-6.19-.1S42.09,37,40.31,37c-1.1,0-2,.14-3.17.14-.43,0-.67-.1-.67-.34a.39.39,0,0,1,.43-.34,3.6,3.6,0,0,0,1-.14c.86-.19,1.44-.82,1.54-3.79,0-1.63.1-3.6.1-7.25Z"/><path d="M62.63,36.62C62,36.33,62,36.14,62,35c0-2.21.14-3.84.19-4.51,0-.43.14-.67.38-.67s.34.14.34.48a6,6,0,0,0,.14,1.44C63.69,34.84,66.52,36,69.3,36c4,0,5.9-2.74,5.9-5.14,0-2.74-1.25-4.42-4.75-7.25l-1.92-1.49C63.93,18.47,63,15.93,63,13.09c0-4.42,3.5-7.39,8.88-7.39a16.82,16.82,0,0,1,3.89.38,7.92,7.92,0,0,0,1.63.24c.34,0,.43.1.43.29s-.19,1.87-.19,4.66c0,.72-.1,1-.34,1s-.29-.19-.34-.53a6.44,6.44,0,0,0-.58-2.26C76.12,9.06,75,7.24,71,7.24c-2.88,0-5,1.73-5,4.61,0,2.26,1.15,3.65,5.14,6.67l1.1.86c5,3.84,6.29,6.38,6.29,9.79A8.42,8.42,0,0,1,74.83,36a12,12,0,0,1-6.48,1.68A13.6,13.6,0,0,1,62.63,36.62Z"/></g></svg>