<svg xmlns="http://www.w3.org/2000/svg" viewBox="0 0 676 40"><title>igotb</title><g id="Layer_4" data-name="Layer 4"><path d="M6.19,15.64c0-7.18,0-8.47-.09-9.94S5.55,3.35,4.54,3.12a6.06,6.06,0,0,0-1.43-.18c-.18,0-.37-.09-.37-.28s.23-.37.74-.37c1.52,0,4.42.14,4.65.14s3.13-.14,4.51-.14c.51,0,.74.09.74.37s-.18.28-.37.28a6.88,6.88,0,0,0-1.15.14c-1.24.23-1.61,1-1.7,2.62s-.09,2.76-.09,9.94v8.1c0,4.42,0,8.05.23,10,.14,1.33.41,2.35,1.79,2.53.64.09,1.61.18,1.89.18s.55.14.55.28-.18.37-.69.37c-2.53,0-5.48-.14-5.71-.14s-3.13.14-4.51.14c-.51,0-.74-.09-.74-.37s.09-.28.51-.28a6.29,6.29,0,0,0,1.2-.14c.92-.18,1.2-1.24,1.38-2.58.23-1.93.23-5.57.23-10Z"/><path d="M21.7,36.58c-.6-.28-.6-.46-.6-1.56,0-2.12.14-3.68.18-4.33,0-.41.14-.64.37-.64s.32.14.32.46a5.69,5.69,0,0,0,.14,1.38c.6,3,3.31,4.14,6,4.14,3.82,0,5.66-2.62,5.66-4.92,0-2.62-1.2-4.23-4.56-6.95l-1.84-1.43C22.94,19.18,22,16.74,22,14c0-4.23,3.36-7.09,8.51-7.09a16.1,16.1,0,0,1,3.73.37,7.6,7.6,0,0,0,1.56.23c.32,0,.41.09.41.28s-.18,1.79-.18,4.46c0,.69-.09,1-.32,1s-.28-.18-.32-.51a6.16,6.16,0,0,0-.55-2.16c-.23-.41-1.29-2.16-5.15-2.16-2.76,0-4.83,1.66-4.83,4.42,0,2.16,1.1,3.5,4.92,6.4l1.06.83c4.79,3.68,6,6.12,6,9.39A8.08,8.08,0,0,1,33.39,36a11.5,11.5,0,0,1-6.21,1.61A13,13,0,0,1,21.7,36.58Z"/><path d="M89.31,33.17c0,2.07,0,2.16-.6,2.49A22.74,22.74,0,0,1,79,37.73c-3.5,0-10-.46-15.14-4.92a18,18,0,0,1-5.48-13.12c0-7.36,3.59-12.56,7.69-15.14s8.7-2.9,12.24-2.9a39.47,39.47,0,0,1,7,.78A22.88,22.88,0,0,0,89,2.89c.46,0,.55.23.55.41a58.24,58.24,0,0,0-.32,6.54c0,.74-.09,1-.41,1s-.28-.28-.32-.69a7.05,7.05,0,0,0-1-3c-1.15-1.75-4.88-3.73-10.82-3.73a14.7,14.7,0,0,0-9.85,3c-2.67,2.12-4.56,6.3-4.56,11.69a18.77,18.77,0,0,0,4.88,12.75,16.75,16.75,0,0,0,12.06,4.92,12.55,12.55,0,0,0,5.25-1,1.67,1.67,0,0,0,.92-1.61V25.35c0-3.73-.23-4.23-2.07-4.74a8.62,8.62,0,0,0-1.56-.14c-.18,0-.37-.09-.37-.28s.23-.37.74-.37c2.07,0,5,.14,5.2.14s3.13-.14,4.51-.14c.51,0,.74.09.74.37s-.18.28-.37.28a6.86,6.86,0,0,0-1.15.14c-1.24.23-1.61,1-1.7,2.62s-.09,2.85-.09,4.79Z"/><path d="M104.22,25.86a.48.48,0,0,0-.46.37l-2,5.75a11.59,11.59,0,0,0-.78,3.27c0,.83.51,1.2,1.52,1.2h.32c.41,0,.55.14.55.32s-.37.32-.69.32c-1,0-3.13-.14-3.64-.14s-2.49.14-4.42.14c-.51,0-.74-.09-.74-.32s.18-.32.55-.32a6.64,6.64,0,0,0,.92,0c2-.18,2.76-1.7,3.54-3.64l9.2-24.25c.51-1.33.64-1.56,1-1.56s.41.18.92,1.47c.64,1.52,6.9,17.58,9.34,23.33,1.52,3.64,2.85,4.23,3.5,4.46a4.4,4.4,0,0,0,1.56.23c.32,0,.55.09.55.32s-.18.32-.69.32-3.91,0-7-.09c-.87,0-1.15-.09-1.15-.32a.39.39,0,0,1,.32-.32c.18-.09.46-.32.18-1L113,26.09a.41.41,0,0,0-.37-.23ZM112,24.24c.18,0,.18-.14.14-.28L108.54,13.8c-.23-.64-.28-.64-.51,0L104.59,24c-.09.18,0,.28.09.28Z"/><path d="M161.88,32c.14,1.11.41,3.68,2.21,4.1a15.74,15.74,0,0,0,2.35.32c.18,0,.6,0,.6.28s-.18.37-.69.37c-.83,0-5.8-.18-7.27-.28-1-.09-1.38-.18-1.38-.41s.18-.32.41-.41.37-.64.28-1.29l-2-19.7-9.76,19.79c-.87,1.79-1,2.21-1.43,2.21s-.51-.41-1.38-2c-.74-1.33-4.42-8.7-4.69-9.11s-4.79-9.48-5.15-10.45l-1.7,17.72c0,.64,0,1.06,0,1.75a1.33,1.33,0,0,0,1.15,1.38c.51.09.83.09,1.29.14s.46.18.46.28c0,.32-.28.37-.78.37-1.47,0-3.45-.14-3.82-.14s-2.39.14-3.54.14c-.41,0-.69,0-.69-.37,0-.09.18-.28.6-.28a7,7,0,0,0,.87,0c1.1-.09,1.52-1.2,1.75-3l3.08-25.27c.09-.78.28-1.15.51-1.15s.37.14.69.74L146.1,31.56,157.83,7.72c.23-.51.41-.78.69-.78s.41.41.46,1.15Z"/><path d="M174,18.81c0-6,0-7.13-.09-8.38s-.41-1.93-1.75-2.21a7.66,7.66,0,0,0-1.1-.09c-.32,0-.6-.14-.6-.28s.23-.37.69-.37c.92,0,2.16.09,4.74.14.23,0,8.42,0,9.34,0a6.45,6.45,0,0,0,1.79-.23,1.4,1.4,0,0,1,.51-.14c.09,0,.18.09.18.32s-.28.92-.37,2.07c0,.78-.09,1.52-.14,2.39,0,.41-.09.69-.32.69s-.32-.18-.32-.51a4.4,4.4,0,0,0-.32-1.47c-.28-.92-.69-1.24-3-1.38-.6,0-5.15-.09-5.25-.09s-.23.09-.23.37V20.06c0,.28,0,.46.28.46.55,0,5.25,0,6.21-.14s1.75-.18,2.12-.69c.18-.28.32-.37.51-.37s.18,0,.18.28-.18,1.1-.32,2.44-.14,2.21-.18,2.81c0,.37-.14.51-.32.51s-.28-.28-.28-.6a5.17,5.17,0,0,0-.14-1.1c-.18-.6-.46-1.24-2.21-1.38-1.06-.09-4.79-.18-5.52-.18-.28,0-.32.14-.32.32v3.36c0,1.43,0,5.48,0,6.26.09,1.7.32,2.58,1.29,3a8.73,8.73,0,0,0,3.36.41,13.7,13.7,0,0,0,3.5-.28c1.38-.41,1.7-1.33,2.07-3,.09-.46.23-.64.41-.64s.28.41.28.69-.37,3.22-.51,4-.51,1-2,1c-3,0-4.33-.09-5.94-.09s-3.73-.14-5.43-.14c-1.06,0-1.93.14-3,.14-.42,0-.64-.09-.64-.32a.37.37,0,0,1,.41-.32,3.41,3.41,0,0,0,.92-.14c.83-.18,1.38-.78,1.47-3.64,0-1.56.09-3.45.09-6.95Z"/><path d="M209.75,19.64c0-7.46,5.43-18,18.13-18C238.24,1.65,246,8.18,246,18.91c0,10.31-7.27,18.82-18.36,18.82C215,37.73,209.75,27.93,209.75,19.64Zm31.8.55c0-11-6.72-17-14-17-7.69,0-13.44,5.06-13.44,15.14,0,10.72,6.44,17.63,14.73,17.63C233,36,241.55,33.59,241.55,20.19Z"/><path d="M255.91,18.81c0-6,0-7.13-.09-8.38s-.32-2-1.75-2.16c-.41,0-.74,0-1.15-.09s-.6-.18-.6-.37.23-.32.69-.32c1.66,0,3.18.14,4.69.14.69,0,9.07,0,10,0a6.93,6.93,0,0,0,2.07-.32,1.5,1.5,0,0,1,.46-.14c.14,0,.23.14.14.41A10,10,0,0,0,270.13,9c-.18,1.2-.14,2-.23,3.22,0,.51-.14.69-.32.69s-.32-.23-.37-.55a3.88,3.88,0,0,0-.74-2.3,3.83,3.83,0,0,0-2.58-.64c-2,0-3.77-.09-5.8-.09-.32,0-.41.09-.41.46v10.4c0,.23,0,.41.32.41,1.89,0,4.1,0,5.61,0,1.89,0,2.49-.14,3.08-.87.18-.23.28-.37.46-.37s.18.18.18.41-.18,1-.32,2.39a23.89,23.89,0,0,0-.18,2.67c0,.46-.09.69-.32.69s-.28-.28-.32-.69a2.38,2.38,0,0,0-2.39-2.49c-.92-.14-5.06-.14-5.8-.14-.28,0-.32.09-.32.41v3.22c0,3.08,0,5.84.09,7.69,0,2.3.37,2.62,1.66,2.81.6.09,1,.14,1.43.18s.55.14.55.32-.14.32-.6.32c-2.39,0-4.92-.14-5.11-.14h-.32c-.87,0-2.76.14-3.73.14-.41,0-.64-.09-.64-.32s.09-.28.46-.32.69,0,1-.09c1.06-.14,1.2-.87,1.29-2.53s.18-4.42.18-8.1Z"/><path d="M305.89,23.74c0,4.42,0,8.05.23,10,.14,1.33.41,2.35,1.79,2.53a20.12,20.12,0,0,0,2.07.18c.28,0,.37.14.37.28s-.23.37-.74.37c-2.53,0-5.43-.14-5.66-.14s-3.13.14-4.51.14c-.51,0-.74-.09-.74-.37s.09-.28.37-.28a7.13,7.13,0,0,0,1.38-.18c.92-.18,1.15-1.2,1.33-2.53.23-1.93.23-5.57.23-10V4.27c-2.25,0-4.56,0-6.81.09-2.85,0-4,.37-4.7,1.47a8,8,0,0,0-.78,1.43c-.14.37-.28.46-.46.46s-.23-.14-.23-.41c0-.46.92-4.42,1-4.79s.28-.87.46-.87a8.59,8.59,0,0,0,2,.55c1.33.14,3.08.23,3.64.23h17.26a18.39,18.39,0,0,0,3.27-.23c.69-.09,1.1-.23,1.29-.23s.23.28.23.55c0,1.38-.14,4.56-.14,5.06s-.14.6-.32.6-.32-.14-.37-.78c0-.18,0-.32,0-.51-.14-1.38-1.24-2.44-5.66-2.53-1.93,0-3.87,0-5.8-.09Z"/><path d="M347.08,19.83c.14,0,.28,0,.28-.23v-.83c0-6.07,0-7.13-.09-8.38s-.28-1.89-1.79-2.16a9,9,0,0,0-1.15-.09c-.32,0-.55-.14-.55-.32s.23-.32.64-.32c1.93,0,4.65.14,4.83.14s2.76-.14,4.14-.14c.46,0,.74,0,.74.32s-.14.32-.51.32a6.25,6.25,0,0,0-.92.09c-1.24.18-1.43.92-1.52,2.21s0,2.3,0,8.38v6.9c0,3.77,0,6.77.18,8.42.14,1.11.37,2,1.56,2.16a11.29,11.29,0,0,0,1.61.14c.37,0,.6.14.6.32s-.23.32-.69.32c-2.3,0-5-.14-5.2-.14s-2.85.14-4.1.14c-.46,0-.69-.09-.69-.37s.14-.28.51-.28a4.14,4.14,0,0,0,1.06-.09c.78-.14,1-1.15,1.15-2.21a76.76,76.76,0,0,0,.23-8.28v-4.1a.27.27,0,0,0-.28-.28H330.37c-.14,0-.23,0-.23.28v4.1a78.7,78.7,0,0,0,.23,8.38c.14,1,.37,1.93,1.56,2.07a12.43,12.43,0,0,0,1.66.14c.32,0,.55.14.55.32s-.18.32-.6.32c-2.35,0-5.06-.14-5.29-.14s-2.95.14-4.14.14c-.46,0-.74-.09-.74-.32s.09-.32.51-.32a4.49,4.49,0,0,0,1.1-.14c.83-.18,1-1.06,1.15-2.07a70.09,70.09,0,0,0,.23-8.51V18.91c0-6.07,0-7.27-.09-8.51s-.41-2.07-1.75-2.21a12.24,12.24,0,0,0-1.24-.09c-.32,0-.51-.14-.51-.28s.23-.32.69-.32c2,0,4.19.14,4.79.14.18,0,2.85-.14,4.14-.14.46,0,.69.09.69.32s-.18.28-.46.28a4,4,0,0,0-.92.09c-1.15.18-1.43,1-1.52,2.25s0,2.25,0,8.33v.83c0,.23.14.23.28.23Z"/><path d="M365.35,18.81c0-6.08,0-7.18-.09-8.42s-.42-1.93-1.84-2.21a7.65,7.65,0,0,0-1.1-.09c-.32,0-.51-.09-.51-.28s.14-.32.55-.32c2,0,4.79.14,4.88.14.41,0,3.54-.14,4.83-.14,2.58,0,5.38.23,7.55,1.75a7,7,0,0,1,2.76,5.61c0,2.53-1.24,5.75-4.88,8.7,3.36,4.14,6.12,7.55,8.47,10,2.21,2.25,3.59,2.62,4.88,2.81.32,0,1.29.09,1.43.09.37,0,.51.14.51.32s-.18.32-.83.32h-3.22a10.33,10.33,0,0,1-4.19-.55c-1.93-.83-3.31-2.9-5.71-6-1.79-2.21-3.63-4.69-4.42-5.66a.66.66,0,0,0-.55-.28l-4.74,0c-.18,0-.23,0-.23.23v.64a86.56,86.56,0,0,0,.23,8.7c.14,1.11.28,2,1.79,2.21.46,0,1,.09,1.33.09s.6.14.6.28-.18.37-.64.37c-2.39,0-5-.14-5.15-.14-.74,0-2.76.14-4,.14-.46,0-.64-.09-.64-.37s.28-.28.55-.28a4,4,0,0,0,1-.09c.78-.14,1.06-.64,1.2-1.75.23-1.66.18-5.43.18-8.88Zm3.54,3.27a.58.58,0,0,0,.23.55,11.8,11.8,0,0,0,4.1.6,5.41,5.41,0,0,0,3.08-.69c1.38-.87,2.3-2.9,2.3-5.84,0-5-2.67-7.78-6.76-7.78a12.37,12.37,0,0,0-2.67.23.42.42,0,0,0-.28.41Z"/><path d="M392,22.22A15.52,15.52,0,0,1,408.15,6.94c9.11,0,16.06,5.43,16.06,14.68,0,8.79-6.49,16-16.29,16C396.64,37.59,392,29.21,392,22.22Zm27.84.55c0-9.25-5.71-14.4-12-14.4s-11.55,4-11.55,12.66c0,9,5,15,12.75,15C412.15,36,419.88,34.46,419.88,22.77Z"/><path d="M432.68,8.83c0-1.43.14-1.89.51-1.89s1.1.92,1.43,1.24,6.81,7,13.25,13.58c3.59,3.5,8.19,8.24,9.39,9.34L456.75,12c0-2.48-.32-3.31-1.57-3.64a11.59,11.59,0,0,0-1.79-.18c-.46,0-.55-.18-.55-.37s.37-.28.83-.28c2,0,3.91.14,4.33.14s1.89-.14,3.68-.14c.51,0,.64,0,.64.28s-.14.32-.41.37-.64,0-1.15.14c-1.06.23-1.38.69-1.38,3.45l-.09,23.1c0,2.3-.09,2.53-.41,2.53s-.78-.32-3-2.44c-.18-.09-6.58-6.44-10.58-10.35l-10.54-11,.6,18c.09,3.18.37,4.37,1.52,4.65a8,8,0,0,0,1.89.18c.37,0,.55.14.55.32s-.23.32-.74.32c-2.49,0-4.14-.14-4.46-.14s-2,.14-4,.14c-.41,0-.69,0-.69-.32s.18-.32.64-.32a4.61,4.61,0,0,0,1.43-.18c1-.32,1.24-1.56,1.24-4.92C432.68,9.38,432.73,16.47,432.68,8.83Z"/><path d="M472.54,18.81c0-6,0-7.13-.09-8.38S472,8.51,470.7,8.23a7.66,7.66,0,0,0-1.1-.09c-.32,0-.6-.14-.6-.28s.23-.37.69-.37c.92,0,2.16.09,4.74.14.23,0,8.42,0,9.34,0a6.45,6.45,0,0,0,1.79-.23,1.4,1.4,0,0,1,.51-.14c.09,0,.18.09.18.32s-.28.92-.37,2.07c0,.78-.09,1.52-.14,2.39,0,.41-.09.69-.32.69s-.32-.18-.32-.51a4.38,4.38,0,0,0-.32-1.47c-.28-.92-.69-1.24-3-1.38-.6,0-5.15-.09-5.25-.09s-.23.09-.23.37V20.06c0,.28,0,.46.28.46.55,0,5.25,0,6.21-.14s1.75-.18,2.12-.69c.18-.28.32-.37.51-.37s.18,0,.18.28-.18,1.1-.32,2.44-.14,2.21-.18,2.81c0,.37-.14.51-.32.51s-.28-.28-.28-.6a5.17,5.17,0,0,0-.14-1.1c-.18-.6-.46-1.24-2.21-1.38-1.06-.09-4.79-.18-5.52-.18-.28,0-.32.14-.32.32v3.36c0,1.43,0,5.48,0,6.26.09,1.7.32,2.58,1.29,3a8.73,8.73,0,0,0,3.36.41,13.7,13.7,0,0,0,3.5-.28c1.38-.41,1.7-1.33,2.07-3,.09-.46.23-.64.41-.64s.28.41.28.69-.37,3.22-.51,4-.51,1-2,1c-3,0-4.33-.09-5.94-.09s-3.73-.14-5.43-.14c-1.06,0-1.93.14-3,.14-.41,0-.64-.09-.64-.32a.37.37,0,0,1,.41-.32,3.4,3.4,0,0,0,.92-.14c.83-.18,1.38-.78,1.47-3.64,0-1.56.09-3.45.09-6.95Z"/><path d="M494.72,36.58c-.6-.28-.6-.46-.6-1.56,0-2.12.14-3.68.18-4.33,0-.41.14-.64.37-.64s.32.14.32.46a5.73,5.73,0,0,0,.14,1.38c.6,3,3.31,4.14,6,4.14,3.82,0,5.66-2.62,5.66-4.92,0-2.62-1.2-4.23-4.56-6.95l-1.84-1.43C496,19.18,495,16.74,495,14c0-4.23,3.36-7.09,8.51-7.09a16.1,16.1,0,0,1,3.73.37,7.61,7.61,0,0,0,1.57.23c.32,0,.41.09.41.28s-.18,1.79-.18,4.46c0,.69-.09,1-.32,1s-.28-.18-.32-.51a6.16,6.16,0,0,0-.55-2.16c-.23-.41-1.29-2.16-5.15-2.16-2.76,0-4.83,1.66-4.83,4.42,0,2.16,1.1,3.5,4.92,6.4l1.06.83c4.79,3.68,6,6.12,6,9.39a8.08,8.08,0,0,1-3.5,6.54,11.5,11.5,0,0,1-6.21,1.61A13,13,0,0,1,494.72,36.58Z"/><path d="M536.6,15.64c0-7.18,0-8.47-.09-9.94s-.46-2.3-2-2.62a8.22,8.22,0,0,0-1.33-.14c-.41,0-.6-.09-.6-.28s.23-.37.74-.37c2.07,0,5,.14,5.2.14,1.11,0,2.9-.14,5-.14,7.55,0,9.2,4.6,9.2,6.9,0,3.77-2.16,6-4.33,8.28,3.41,1.06,8,4.33,8,9.71,0,4.92-3.87,10-11.74,10-.51,0-2-.09-3.31-.14s-2.62-.14-2.81-.14c-1.47,0-2.9.14-4.51.14-.51,0-.74-.09-.74-.32s.09-.32.69-.32a4.79,4.79,0,0,0,1.1-.14c.92-.18,1.1-1.24,1.29-2.58.23-1.93.23-5.57.23-10Zm3.68,1c0,.32.09.41.32.51a16.2,16.2,0,0,0,2.81.18c2.58,0,3.22-.09,4.19-1.2a7.11,7.11,0,0,0,1.66-4.65c0-3.82-1.7-7.92-6.21-7.92a10.28,10.28,0,0,0-2.21.23c-.41.09-.55.23-.55.51Zm0,4.88c0,3.54,0,9.25,0,9.94.14,2.25.14,2.9,1.57,3.59a10.81,10.81,0,0,0,4,.69c2.48,0,6.49-1.33,6.49-6.54A11,11,0,0,0,548,20a7.6,7.6,0,0,0-3.82-1.33c-.6-.09-2.9-.09-3.59-.09-.18,0-.28.09-.28.32Z"/><path d="M568.82,25.86a.48.48,0,0,0-.46.37l-2,5.75a11.62,11.62,0,0,0-.78,3.27c0,.83.51,1.2,1.52,1.2h.32c.41,0,.55.14.55.32s-.37.32-.69.32c-1,0-3.13-.14-3.64-.14s-2.49.14-4.42.14c-.51,0-.74-.09-.74-.32s.18-.32.55-.32a6.64,6.64,0,0,0,.92,0c2-.18,2.76-1.7,3.54-3.64l9.2-24.25c.51-1.33.64-1.56,1-1.56s.41.18.92,1.47c.64,1.52,6.9,17.58,9.34,23.33,1.52,3.64,2.85,4.23,3.5,4.46a4.4,4.4,0,0,0,1.57.23c.32,0,.55.09.55.32s-.18.32-.69.32-3.91,0-7-.09c-.87,0-1.15-.09-1.15-.32a.39.39,0,0,1,.32-.32c.18-.09.46-.32.18-1l-3.64-9.25a.41.41,0,0,0-.37-.23Zm7.82-1.61c.18,0,.18-.14.14-.28L573.14,13.8c-.23-.64-.28-.64-.51,0L569.18,24c-.09.18,0,.28.09.28Z"/><path d="M595.92,33.4A15,15,0,0,1,591,21.67,15.39,15.39,0,0,1,595.65,11c2.48-2.39,6.21-4.1,12.38-4.1a40,40,0,0,1,6.08.51,40.34,40.34,0,0,0,4,.51c.37,0,.41.23.41.46s-.14.78-.23,2.25c0,1.29,0,3.68-.09,4.23s-.14.87-.37.87-.37-.28-.37-.87a5.42,5.42,0,0,0-1.79-4c-1.38-1.2-4.6-2.35-8.15-2.35-5.11,0-7.46,1.43-8.84,2.67-3,2.72-3.68,6-3.68,10.08a14.4,14.4,0,0,0,14.31,14.36c3.13,0,5.43-.32,7-1.89a6.32,6.32,0,0,0,1.52-3.31c.09-.46.23-.69.51-.69s.23.32.23.64a44,44,0,0,1-.92,5.11,1.51,1.51,0,0,1-1.06,1.15c-1.61.69-4.69.92-7.27.92C603.33,37.59,599.19,36.21,595.92,33.4Z"/><path d="M631.59,21c2.12-1.89,7.13-6.67,9.2-8.93,2.21-2.44,2.39-2.67,2.39-3.18,0-.32-.18-.55-.74-.74-.32-.09-.51-.18-.51-.37s.09-.28.46-.28,1.66.14,3.13.14,3.91-.14,4.51-.14.74.09.74.28-.14.32-.51.37A8.16,8.16,0,0,0,648,8.6c-1.1.37-1.7.87-4.1,3-3.36,3-7.36,6.95-9.39,8.79,2.48,2.58,9.94,9.94,11.87,11.69,3.22,2.95,4.79,3.77,6.63,4.19a10,10,0,0,0,1.06.14c.41,0,.64.14.64.37s-.23.28-.74.28h-3c-3.59,0-4.51-.41-6.35-1.7-2.07-1.47-9.43-9-13.07-13.3v3.64c0,3.54,0,6.77.18,8.42.18,1.33.37,1.84,1.56,2.12a10.56,10.56,0,0,0,1.75.18c.41,0,.51.14.51.32s-.18.32-.64.32c-2.35,0-5-.14-5.25-.14s-2.85.14-4.14.14c-.41,0-.74-.09-.74-.32s.18-.32.6-.32a5.46,5.46,0,0,0,1.1-.14c.78-.18.92-1.1,1.06-2.21a81.9,81.9,0,0,0,.23-8.38v-6.9c0-6.08,0-7.18-.09-8.42s-.37-1.93-1.33-2.12c-.46-.09-.78-.09-1.06-.14s-.51-.14-.51-.32.18-.32.69-.32c1.43,0,4,.14,4.19.14s2.85-.14,4.14-.14c.46,0,.69.09.69.32s-.14.28-.51.32-.51,0-.83.09c-1.33.18-1.47.87-1.56,2.21s0,2.3,0,8.38Z"/><path d="M674.34,8.83c0,5.38-3.5,7.73-7.92,13.21-1.7,2.16-1.89,2.9-1.89,3.68a4.46,4.46,0,0,0,.74,2.39,1.72,1.72,0,0,1,.37.78c0,.18-.09.37-.28.37-.41,0-1.43-.92-2-1.61a4.46,4.46,0,0,1-1.33-2.72,3.93,3.93,0,0,1,1-2.3c1.06-1.38,2.16-2.53,3.18-3.82,3.22-4.1,4-6.63,4-9.66,0-2.25-1.2-5.94-5.38-5.94A5.67,5.67,0,0,0,660.4,5a7.26,7.26,0,0,0-1.61,4.28c0,.46-.14.78-.37.78s-.32-.14-.37-.46a53.37,53.37,0,0,1-.18-5.38c0-.28,0-.46.51-.74A15.43,15.43,0,0,1,666,1.65C672.09,1.65,674.34,5.51,674.34,8.83ZM662.56,35.29A2.41,2.41,0,0,1,665,32.85a2.28,2.28,0,0,1,2.35,2.39,2.39,2.39,0,1,1-4.79,0Z"/></g></svg>