<?xml version="1.0" encoding="UTF-8" standalone="no"?>
<!-- Created with Inkscape (http://www.inkscape.org/) -->

<svg
   xmlns:dc="http://purl.org/dc/elements/1.1/"
   xmlns:cc="http://creativecommons.org/ns#"
   xmlns:rdf="http://www.w3.org/1999/02/22-rdf-syntax-ns#"
   xmlns:svg="http://www.w3.org/2000/svg"
   xmlns="http://www.w3.org/2000/svg"
   xmlns:sodipodi="http://sodipodi.sourceforge.net/DTD/sodipodi-0.dtd"
   xmlns:inkscape="http://www.inkscape.org/namespaces/inkscape"
   id="svg4136"
   version="1.1"
   inkscape:version="0.91 r13725"
   width="646"
   height="790"
   viewBox="0 0 646 790"
   sodipodi:docname="LOGO.svg">
  <metadata
     id="metadata4142">
    <rdf:RDF>
      <cc:Work
         rdf:about="">
        <dc:format>image/svg+xml</dc:format>
        <dc:type
           rdf:resource="http://purl.org/dc/dcmitype/StillImage" />
        <dc:title />
      </cc:Work>
    </rdf:RDF>
  </metadata>
  <defs
     id="defs4140" />
  <sodipodi:namedview
     pagecolor="#ffffff"
     bordercolor="#666666"
     borderopacity="1"
     objecttolerance="10"
     gridtolerance="10"
     guidetolerance="10"
     inkscape:pageopacity="0"
     inkscape:pageshadow="2"
     inkscape:window-width="1680"
     inkscape:window-height="987"
     id="namedview4138"
     showgrid="false"
     inkscape:zoom="0.98987342"
     inkscape:cx="323"
     inkscape:cy="395"
     inkscape:window-x="-8"
     inkscape:window-y="-8"
     inkscape:window-maximized="1"
     inkscape:current-layer="svg4136" />
  <path
     style="fill:#000000;fill-opacity:1"
     d="M 248.89949,772.59124 C 238.77998,738.81471 173.48594,506.5744 173.48594,504.35752 c 0,-1.0681 10.27083,-28.17893 22.82409,-60.2463 12.55325,-32.06737 23.51678,-60.26664 24.36339,-62.66502 1.4116,-3.99893 2.72774,-5.1424 15.86382,-13.78259 27.02598,-17.77621 27.49772,-19.81823 3.03842,-13.15249 -20.12552,5.48468 -37.59723,11.48731 -45.38001,15.59089 -3.88938,2.05074 -10.70844,5.21499 -15.15345,7.03169 -20.31034,8.30092 -51.06382,26.99872 -73.33597,44.58754 -11.649782,9.20009 -30.519382,27.73259 -36.977702,36.31712 -2.29905,3.05595 -4.47813,7.16771 -4.84241,9.13724 -0.81819,4.4237 -0.42241,8.13869 10.11184,94.91647 8.38215,69.04951 20.96973,175.79131 22.30745,189.1656 0.67974,6.79598 0.67343,6.81906 -1.86521,6.81906 -1.78723,0 -2.7235,-0.67395 -3.13794,-2.25876 -0.32487,-1.24231 -11.33817,-66.94658 -24.474,-146.00949 l -23.88332,-143.75076 -4.43539,-6.61431 c -6.29791,-9.39183 -6.06989,-10.88038 2.88879,-18.8583 16.72008,-14.88964 41.15074,-34.56488 52.14655,-41.99624 6.462782,-4.36777 24.252112,-15.8924 39.531842,-25.6103 l 27.78133,-17.66891 24.75064,-8.17944 c 36.32379,-12.00407 37.76718,-12.38379 50.95577,-13.4054 6.63406,-0.51387 12.49201,-1.36441 13.01769,-1.8901 0.60087,-0.60087 -0.87698,-2.14564 -3.98007,-4.16024 l -4.93585,-3.20446 -63.6445,0.67079 c -35.00447,0.36892 -66.63486,0.62354 -70.28974,0.56581 -13.404032,-0.21175 -56.024182,7.36224 -74.210772,13.18792 -5.09489,1.63205 -10.15423,2.96735 -11.24297,2.96735 -1.08874,0 -3.26601,-1.34279 -4.83838,-2.98399 l -2.85885,-2.98399 6.19308,-14.44248 6.19308,-14.44248 1.08957,-39.39897 1.08957,-39.39898 9.02225,-41.65799 9.02226,-41.658 18.12558,-39.66553 C 105.61511,14.852549 110.3675,4.9717525 112.70337,4.6273085 c 1.58412,-0.233593 2.18922,0.202517 2.18922,1.577822 0,1.618302 -7.16682,21.8808465 -21.709712,61.3792695 -1.84118,5.000639 -10.21792,26.962198 -18.61498,48.80346 -20.48804,53.2907 -22.573,60.4537 -28.86282,99.16027 -2.30407,14.17883 -2.53793,18.38264 -2.52904,45.46036 l 0.01,29.83678 7.26292,6.56336 7.26293,6.56337 90.972152,0.003 c 85.45693,0.003 91.65975,0.12195 102.31359,1.96307 6.23779,1.07797 11.59081,1.71057 11.89559,1.40577 0.86806,-0.86805 -3.0707,-9.33928 -9.12708,-19.62994 -5.54972,-9.42979 -10.46739,-15.82568 -22.09071,-28.73108 -5.87922,-6.52772 -6.327,-7.38803 -7.97684,-15.326 l -1.74798,-8.41006 10.65983,-58.07038 c 5.86291,-31.93861 14.7394,-80.345852 19.72554,-107.57155 4.98615,-27.225703 9.27301,-50.069533 9.52635,-50.764066 0.25336,-0.694533 1.15682,-1.262788 2.00771,-1.262788 0.85087,0 1.54679,0.568255 1.54649,1.262788 -3.1e-4,0.694533 -4.30432,39.222186 -9.56448,85.617006 -5.26016,46.39482 -10.70168,95.4565 -12.09226,109.02594 l -2.52835,24.67173 5.65485,6.64541 c 10.42774,12.25438 30.11276,33.59666 31.8409,34.52153 3.50725,1.87703 5.7782,0.99621 8.12712,-3.15222 2.94088,-5.19389 5.95827,-6.05915 10.21372,-2.92883 1.76109,1.29547 4.03054,3.39965 5.04322,4.67594 1.79646,2.26414 2.27679,2.32055 19.75757,2.32055 l 17.91636,0 3.20433,-4.54603 c 1.76239,-2.50032 3.75028,-4.54604 4.41752,-4.54604 0.66725,0 3.9725,1.77178 7.34499,3.9373 10.25619,6.5856 9.5512,6.7435 20.50764,-4.59323 15.65624,-16.19967 24.28365,-26.44495 27.07738,-32.15513 2.28847,-4.67745 2.49231,-5.86847 1.58506,-9.2611 -1.86131,-6.96032 -4.93355,-28.34789 -10.13688,-70.5685 -7.85284,-63.719182 -16.23259,-135.027653 -16.23259,-138.133214 0,-2.284928 0.44705,-2.7939 2.45395,-2.7939 2.94056,0 0.95985,-9.1150945 16.68376,76.777492 6.66238,36.393542 15.31048,83.621732 19.21803,104.951532 3.90754,21.3298 7.10462,39.9953 7.10462,41.47887 0,4.37831 -6.42237,13.77788 -16.80458,24.59468 -9.46926,9.8656 -18.53586,22.47965 -26.14421,36.37349 -2.06849,3.77733 -3.54661,7.08217 -3.28471,7.34407 0.2619,0.26189 3.45554,-0.21478 7.09698,-1.05929 9.16871,-2.12636 29.33021,-4.33431 49.89355,-5.46399 18.36817,-1.00909 45.00738,-0.39866 108.96213,2.49682 l 37.38541,1.69258 8.38874,-3.83459 c 5.91299,-2.7029 8.80697,-4.64336 9.80586,-6.57499 0.93076,-1.79989 1.94989,-10.83007 2.96946,-26.31132 2.7266,-41.40093 2.53872,-43.71958 -6.62307,-81.73645 C 588.06929,160.96475 588.44484,162.04717 557.85648,82.232737 527.86646,3.9795145 528.1097,4.6722605 530.16624,3.3708475 c 3.68803,-2.333833 4.63853,-0.931813 18.36399,27.0875935 13.8738,28.322248 19.03685,40.361092 43.21697,100.770459 l 13.34408,33.3376 5.53371,34.34782 5.53371,34.34783 1.22288,37.38582 1.22287,37.38582 6.31139,13.56054 6.31141,13.56055 -3.42002,3.42002 -3.42002,3.42001 -12.54452,-3.61335 c -22.20176,-6.39504 -60.61797,-12.71779 -77.70438,-12.78902 -4.1672,-0.0174 -30.19326,-0.27342 -57.83568,-0.56899 -31.91167,-0.34124 -50.25895,-0.18233 -50.25895,0.43528 0,0.57019 -4.49385,0.92548 -10.85997,0.85859 -9.31113,-0.0978 -11.56995,0.2133 -15.83804,2.1815 -2.81154,1.29653 -4.5702,2.65651 -4.04092,3.12488 0.51543,0.4561 7.75619,1.55529 16.09059,2.44264 13.70278,1.45893 16.60412,2.13879 30.30691,7.10171 21.81514,7.90107 49.61147,19.20361 63.75893,25.92565 13.34346,6.34002 19.21046,10.51502 62.43173,44.42675 33.40898,26.21293 40.42117,32.32304 40.80266,35.55358 0.16794,1.42216 -1.58473,7.53946 -3.89482,13.59403 -4.54957,11.92406 -3.06756,3.78003 -23.69608,130.21547 -10.03361,61.49751 -27.32962,159.38657 -29.40746,166.43542 -0.28663,0.97235 -1.31868,1.76791 -2.29346,1.76791 -2.04502,0 -2.89868,8.36028 14.0288,-137.39131 13.53604,-116.55005 17.17635,-148.91887 17.17635,-152.72848 0,-5.87337 -4.13131,-12.1393 -16.10485,-24.42619 -16.86077,-17.302 -33.54577,-30.12816 -60.67265,-46.64055 -11.49011,-6.99414 -53.05768,-28.51929 -63.46752,-32.86571 -8.44001,-3.52397 -41.06771,-12.66278 -48.93516,-13.70643 l -5.24378,-0.69561 1.60703,2.43366 c 0.88387,1.33851 9.00896,7.4343 18.05575,13.54619 l 16.44873,11.11254 2.7119,7.07161 c 1.49153,3.88938 12.56324,32.54349 24.60379,63.67578 12.04054,31.1323 21.8919,57.14495 21.8919,57.80589 0,1.10504 -24.14559,86.90293 -59.63215,211.89428 -7.88746,27.78133 -14.98352,51.76167 -15.76903,53.28965 -1.53891,2.99349 -4.40701,3.77738 -4.40701,1.20449 0,-4.61156 8.67761,-42.76466 37.46144,-164.70796 l 22.19986,-94.05016 -18.58649,-43.34115 c -25.56311,-59.6097 -29.82075,-69.12676 -32.55233,-72.7638 -3.17683,-4.22986 -34.15468,-24.58496 -35.44757,-23.29208 -0.29735,0.29736 1.61305,7.35575 4.24534,15.68534 l 4.78595,15.14471 -7.34094,19.02418 c -13.95907,36.17518 -34.20708,86.97814 -36.30484,91.0901 l -2.10571,4.12751 -6.55781,-0.25532 c -3.60681,-0.14042 -6.96436,-0.69092 -7.46123,-1.22331 -0.49686,-0.5324 -10.49,-25.9712 -22.20696,-56.53066 L 270.521,406.01151 275.04065,392.031 c 5.07114,-15.6864 5.2564,-16.83151 2.72325,-16.83151 -2.8692,0 -15.11181,6.30068 -24.9747,12.85329 l -9.09207,6.0405 -7.27173,16.56653 c -3.99946,9.11159 -15.7055,35.63369 -26.01342,58.938 -10.30794,23.3043 -18.74571,43.07956 -18.75062,43.94501 -0.005,0.86545 13.90976,59.01903 30.92147,129.23016 l 30.93038,127.65661 -2.02414,2.02415 c -1.94984,1.94982 -2.0449,1.95487 -2.58938,0.1375 z"
     id="path4149"
     inkscape:connector-curvature="0" />
</svg>
